<svg width="38" height="38" viewBox="0 0 38 38" fill="none" xmlns="http://www.w3.org/2000/svg">
<path d="M0.09375 0.09375V37.9062H37.9062V0.09375H0.09375ZM3.53125 3.53125H34.4688V34.4688H3.53125V3.53125ZM10.4062 8.6875V29.2953C20.5984 29.2953 22.6386 29.4328 24.5464 28.8656C25.6636 28.5219 28.723 27.4219 28.723 23.5547C28.723 21.8359 28.2073 18.9312 24.8386 18.2094V18.1578H24.2027C25.9214 17.3844 27.0042 15.9234 27.0042 13.775C27.0042 13.225 27.1589 8.6875 21.1433 8.6875H10.4062ZM13.8438 12.125H20.7188C23.3123 12.125 23.565 13.5911 23.565 14.6859C23.565 17.3569 20.7703 17.2812 20.7188 17.2812H13.8438V12.125ZM13.8438 20.7188H22.025C25.2219 20.7188 25.2838 22.7417 25.2838 23.2625C25.2838 25.9437 22.5148 25.875 22.1797 25.875H13.8438V20.7188Z" fill="white"/>
</svg>
