<svg width="36" height="36" viewBox="0 0 36 36" fill="none" xmlns="http://www.w3.org/2000/svg">
<g clip-path="url(#clip0_31_327)">
<path d="M0 -0.000244141L3.00015 33L18 35.9998L32.9999 33L36 -0.000244141H0ZM30.2157 30.4976L18 32.9393L5.78426 30.4976L3.28368 2.99946H32.7137L30.2157 30.4976Z" fill="white"/>
<path d="M29.4285 5.99951H6.56982L6.84211 8.99966H22.4939L7.62284 16.4994L7.79695 19.5H25.1895L24.6445 25.4939L17.9998 26.8214L11.3538 25.4939L11.0828 22.4997H8.06968L8.56916 27.9955L17.9998 29.8797L27.4305 27.9955L28.4749 16.4994H14.285L29.1562 8.99966L29.4285 5.99951Z" fill="white"/>
</g>
<defs>
<clipPath id="clip0_31_327">
<rect width="36" height="36" fill="white" transform="translate(0 -0.000244141)"/>
</clipPath>
</defs>
</svg>
