<svg width="40" height="39" viewBox="0 0 40 39" fill="none" xmlns="http://www.w3.org/2000/svg">
<path d="M20.3988 32.8307C20.1409 32.7722 19.8917 32.6914 19.6408 32.6175C19.5772 32.5986 19.5136 32.5797 19.4517 32.5608C19.2059 32.4852 18.9636 32.4061 18.7213 32.3219C18.6886 32.3099 18.6542 32.2978 18.6216 32.2858C18.405 32.2085 18.1902 32.1294 17.977 32.0469C17.9169 32.0228 17.8567 32.0005 17.7966 31.9764C17.5628 31.8836 17.3308 31.7874 17.1005 31.6877C17.0541 31.6671 17.0077 31.6464 16.9613 31.6258C16.7636 31.5364 16.5694 31.4453 16.3752 31.3525C16.3184 31.325 16.2634 31.2993 16.205 31.2718C16.052 31.1978 15.9008 31.1171 15.7513 31.0414C15.6499 30.9882 15.5484 30.9383 15.4488 30.8833C15.2649 30.7836 15.0844 30.6822 14.9039 30.5774C14.8438 30.543 14.7819 30.5121 14.72 30.476C14.4811 30.3368 14.2439 30.1907 14.0119 30.0428C13.9483 30.0016 13.8847 29.9569 13.8211 29.9157C13.6509 29.8074 13.4825 29.6957 13.3175 29.5805C13.2625 29.5444 13.2092 29.5032 13.1559 29.4671C12.9961 29.3536 12.8363 29.2402 12.6799 29.1233C12.6077 29.07 12.5389 29.0168 12.4684 28.9635C12.3241 28.8535 12.1797 28.7418 12.0388 28.6266C11.9752 28.575 11.9099 28.5235 11.8463 28.4719C11.6658 28.3224 11.487 28.1746 11.31 28.0199C11.2911 28.0044 11.2705 27.9889 11.2516 27.9718C11.0608 27.805 10.8734 27.6332 10.6878 27.4596C10.6345 27.408 10.5813 27.3582 10.5297 27.3083C10.3922 27.1777 10.2581 27.0454 10.1258 26.9113C10.0725 26.858 10.0192 26.8064 9.96767 26.7532C9.79923 26.5796 9.63423 26.4043 9.47095 26.2272C9.46235 26.2186 9.45376 26.21 9.44688 26.2014C9.27501 26.0141 9.10829 25.8216 8.94329 25.6274C8.8986 25.5741 8.85563 25.5243 8.81095 25.471C8.68892 25.3232 8.56688 25.1736 8.44829 25.0224C8.4036 24.9691 8.35891 24.9124 8.31595 24.8574C8.17329 24.6718 8.03407 24.4878 7.89829 24.3005C4.1222 19.1511 2.7661 12.0475 5.78423 6.2141L3.10985 9.60691C-0.317334 14.5329 0.108915 20.9421 2.72657 26.1757C2.78845 26.3011 2.85376 26.4249 2.91907 26.5486C2.96032 26.626 2.99813 26.7068 3.0411 26.7841C3.06517 26.8305 3.09267 26.8752 3.11673 26.9199C3.16142 27.0041 3.20782 27.0832 3.25251 27.1639C3.33329 27.3066 3.41751 27.4493 3.50173 27.5919C3.54813 27.6693 3.59626 27.7483 3.64438 27.8257C3.73892 27.9786 3.83517 28.1282 3.93485 28.2794C3.9761 28.343 4.01563 28.4083 4.0586 28.4702C4.1961 28.673 4.33532 28.8758 4.47798 29.0769C4.48141 29.0821 4.48657 29.0872 4.49001 29.0924C4.51235 29.1233 4.53813 29.156 4.56048 29.1886C4.68423 29.3605 4.81313 29.5307 4.94376 29.6974C4.99188 29.7593 5.04001 29.8211 5.08813 29.8813C5.20329 30.0274 5.32188 30.1718 5.4422 30.3161C5.48688 30.3694 5.53157 30.4244 5.57798 30.4777C5.73954 30.6668 5.90282 30.8558 6.07126 31.0414C6.0747 31.0449 6.07813 31.0483 6.08157 31.05C6.08845 31.0586 6.09532 31.0638 6.10048 31.0724C6.26376 31.2511 6.4322 31.4264 6.60063 31.6C6.65392 31.655 6.7072 31.7083 6.76048 31.7616C6.8911 31.8939 7.02516 32.0246 7.16095 32.1535C7.21595 32.205 7.26923 32.2583 7.32423 32.3099C7.5047 32.48 7.68688 32.6468 7.87251 32.81C7.87595 32.8118 7.87767 32.8152 7.8811 32.8169C7.91204 32.8444 7.94642 32.8719 7.97735 32.8977C8.14063 33.0386 8.30735 33.1796 8.47579 33.3188C8.54454 33.3738 8.61329 33.4288 8.68204 33.4838C8.81954 33.5938 8.95704 33.7021 9.09626 33.8086C9.17017 33.8653 9.24407 33.9221 9.31798 33.9771C9.47095 34.0905 9.62735 34.2022 9.78376 34.3105C9.84048 34.3518 9.89548 34.3913 9.95391 34.4308C9.96938 34.4411 9.98485 34.4532 10.0003 34.4635C10.1481 34.5666 10.3011 34.6628 10.4524 34.7625C10.5177 34.8055 10.5813 34.8502 10.6483 34.8932C10.882 35.041 11.1175 35.1871 11.3564 35.328C11.4217 35.3658 11.487 35.4019 11.5524 35.438C11.7277 35.5394 11.9047 35.6391 12.0834 35.7371C12.1797 35.7886 12.2794 35.8385 12.3774 35.8883C12.5028 35.9536 12.63 36.0224 12.7572 36.086C12.7864 36.1014 12.8174 36.1152 12.8449 36.1289C12.8964 36.153 12.948 36.1771 13.0013 36.2046C13.2006 36.2991 13.4017 36.3936 13.6045 36.4847C13.6475 36.5036 13.6888 36.5225 13.7317 36.5414C13.9638 36.6428 14.1975 36.7408 14.4347 36.8336C14.4914 36.8577 14.5481 36.8783 14.6066 36.9007C14.8249 36.9849 15.0466 37.0691 15.27 37.1464C15.2975 37.1568 15.325 37.1671 15.3542 37.1757C15.5983 37.2616 15.8458 37.3407 16.0933 37.418C16.1517 37.4352 16.2119 37.4541 16.272 37.4713C16.5247 37.5469 16.7756 37.638 17.0369 37.6861C33.6108 40.7094 38.425 27.726 38.425 27.726C34.3825 32.9939 27.205 34.3827 20.4039 32.8375L20.3988 32.8307ZM14.4278 19.3969C14.7991 19.9297 15.2116 20.5622 15.7031 20.9902C15.8819 21.1861 16.0692 21.3786 16.26 21.5677C16.3081 21.6175 16.358 21.6639 16.4061 21.7121C16.5917 21.8925 16.7791 22.0679 16.9733 22.2397C16.9819 22.2449 16.9888 22.2535 16.9974 22.2603L17.0025 22.2655C17.2174 22.4546 17.4408 22.6368 17.6659 22.8138C17.7158 22.8516 17.7656 22.8928 17.8172 22.9324C18.0441 23.106 18.2744 23.2761 18.5116 23.4394C18.5184 23.4446 18.5253 23.4497 18.5322 23.4549C18.637 23.5271 18.7436 23.5941 18.8484 23.6646C18.9 23.6972 18.9481 23.7333 18.9997 23.7643C19.1681 23.8725 19.34 23.9791 19.5136 24.0788C19.5377 24.0943 19.5617 24.1063 19.5858 24.12C19.7353 24.2077 19.8883 24.2919 20.0413 24.3744C20.0945 24.4054 20.1495 24.4311 20.2028 24.4586C20.3077 24.5136 20.4142 24.5686 20.5208 24.6236C20.5363 24.6305 20.5534 24.6391 20.5689 24.6443C20.7872 24.7525 21.0072 24.8557 21.2323 24.9536C21.2805 24.9743 21.3303 24.9932 21.3784 25.0138C21.5589 25.0911 21.7394 25.165 21.9216 25.2355C21.9989 25.2647 22.078 25.2922 22.1536 25.3214C22.3203 25.3833 22.4853 25.44 22.6538 25.495C22.7294 25.5191 22.8033 25.5432 22.8789 25.5672C23.1178 25.6411 23.3533 25.7357 23.6008 25.7769C36.3969 27.8961 39.3514 18.0443 39.3514 18.0443C36.6891 21.8805 31.5311 23.7093 26.0277 22.281C25.7836 22.2157 25.543 22.1469 25.3023 22.0713C25.2284 22.0489 25.158 22.0249 25.0841 22.0008C24.9139 21.9458 24.7455 21.8874 24.577 21.8255C24.4997 21.7963 24.4241 21.7688 24.3484 21.7396C24.1645 21.6691 23.9824 21.5952 23.8036 21.5196C23.7538 21.4972 23.7039 21.4783 23.6558 21.4577C23.4306 21.3597 23.2072 21.2566 22.9872 21.1483C22.8738 21.0933 22.7638 21.0349 22.652 20.9782C22.5884 20.9455 22.5231 20.9129 22.4595 20.8785C22.3169 20.8011 22.1759 20.7204 22.0367 20.6396C22.0041 20.6207 21.968 20.6018 21.9353 20.5828C21.7617 20.4814 21.5916 20.3766 21.4214 20.27C21.3699 20.2374 21.3183 20.2013 21.2667 20.1669C21.155 20.0947 21.0433 20.0208 20.935 19.9469C20.6995 19.7836 20.4692 19.6135 20.2441 19.4416C20.1925 19.4004 20.1392 19.3608 20.0877 19.3196C17.6797 17.4169 15.7702 14.8182 14.8609 11.8705C13.9088 8.81457 14.115 5.38223 15.7633 2.59785L13.7386 5.45613C11.2602 9.02254 11.3942 13.7972 13.3278 17.5699C13.6527 18.2024 14.017 18.816 14.4244 19.4003L14.4278 19.3969ZM27.9166 14.9849C28.0214 15.0244 28.128 15.0588 28.2345 15.0949C28.2809 15.1086 28.3273 15.1258 28.3755 15.1396C28.5267 15.186 28.6763 15.2427 28.8309 15.2702C35.8967 16.6349 37.8131 11.6436 38.3236 10.9097C36.6444 13.3263 33.8239 13.9072 30.3623 13.0668C30.0891 12.9997 29.7883 12.9018 29.5236 12.8072C29.185 12.6869 28.8533 12.5494 28.5284 12.3947C27.9131 12.0991 27.327 11.7416 26.7839 11.3308C23.6867 8.98129 21.7617 4.49707 23.783 0.844727L22.6881 2.35207C21.2272 4.50223 21.0845 7.17316 22.0969 9.54676C23.1659 12.0682 25.3574 14.0447 27.9131 14.9832L27.9166 14.9849Z" fill="white"/>
</svg>
