<svg width="36" height="32" viewBox="0 0 36 32" fill="none" xmlns="http://www.w3.org/2000/svg">
<path d="M30 21.5312C30.3009 21.3584 30.487 21.0382 30.4881 20.6912L30.5056 15.0648C30.5067 14.7177 30.6927 14.3976 30.9936 14.2248L34.0436 12.4728C34.3444 12.3 34.7145 12.3006 35.0148 12.4744C35.315 12.6482 35.5 12.9688 35.5 13.3157V23.5448C35.5 23.8928 35.3138 24.2143 35.0119 24.3877L23.5015 30.999C23.2023 31.1707 22.8346 31.1711 22.5351 31L13.5019 25.8334C13.199 25.6604 13.012 25.3384 13.0119 24.9895V19.8317C13.0119 19.8259 13.0187 19.822 13.0245 19.8249C13.0294 19.8278 13.0362 19.8249 13.0362 19.8181V19.8123C13.0362 19.8084 13.0381 19.8045 13.042 19.8026L20.4817 15.5286C20.4885 15.5247 20.4856 15.514 20.4778 15.514C20.4735 15.514 20.47 15.5105 20.47 15.5062L20.4846 10.4495C20.486 10.1015 20.3012 9.77925 20.0001 9.60463C19.6991 9.43001 19.3276 9.42964 19.0262 9.60367L13.497 12.7897C13.1967 12.9627 12.827 12.9627 12.5267 12.7897L6.98004 9.59589C6.67929 9.42272 6.30904 9.42298 6.00853 9.59659C5.70803 9.77019 5.52285 10.0908 5.52264 10.4379V19.577C5.52288 19.9237 5.33851 20.2442 5.03874 20.4184C4.73898 20.5925 4.36918 20.5938 4.06816 20.4219L0.990016 18.6621C0.686505 18.4887 0.499417 18.1658 0.500001 17.8163L0.527226 1.8422C0.52798 1.49563 0.713164 1.17566 1.01329 1.00236C1.31342 0.829053 1.68312 0.828614 1.98365 1.00121L12.5277 7.05735C12.8275 7.22953 13.1962 7.22953 13.4961 7.05735L24.0372 1.00121C24.3382 0.828356 24.7085 0.829073 25.0088 1.00309C25.3091 1.17711 25.4939 1.49803 25.4936 1.84512V17.8231C25.4937 18.171 25.308 18.4924 25.0065 18.666L19.4861 21.8453C19.1843 22.0192 18.9986 22.3414 18.9994 22.6898C19.0002 23.0382 19.1874 23.3595 19.49 23.5321L22.5351 25.2656C22.8345 25.4361 23.2018 25.4354 23.5005 25.2637L30 21.5312ZM30.6388 7.19833C30.639 7.54836 30.8274 7.87123 31.1321 8.04366C31.4367 8.21609 31.8105 8.21146 32.1107 8.03154L35.0275 6.28149C35.3204 6.10599 35.4997 5.78972 35.5 5.44828V1.88207C35.4994 1.5322 35.3108 1.20966 35.0063 1.03746C34.7017 0.865272 34.3281 0.869991 34.028 1.04982L31.1113 2.79987C30.8184 2.97537 30.639 3.29165 30.6388 3.63309V7.1993V7.19833Z" fill="white"/>
</svg>
