<svg width="56" height="56" viewBox="0 0 56 56" fill="none" xmlns="http://www.w3.org/2000/svg">
<path d="M28.0385 22.8711C25.1964 22.8711 22.874 25.1935 22.874 28.0356C22.874 30.8776 25.1964 33.2 28.0385 33.2C30.8806 33.2 33.203 30.8776 33.203 28.0356C33.203 25.1935 30.8806 22.8711 28.0385 22.8711Z" fill="white"/>
<path d="M3.9375 28.0355C3.9375 29.6271 4.73653 31.0984 6.02603 32.3425C7.31552 33.5832 9.10522 34.6421 11.2814 35.5256C15.6274 37.2991 21.5259 38.3644 28.0384 38.3644C34.5508 38.3644 40.4461 37.2991 44.7985 35.5256C46.9683 34.6421 48.7612 33.5832 50.0507 32.3425C51.337 31.0984 52.1392 29.6271 52.1392 28.0355C52.1392 26.4439 51.337 24.9693 50.0507 23.7285C48.7612 22.4877 46.9683 21.4289 44.7953 20.5454C40.4493 18.7719 34.5508 17.7065 28.0351 17.7065C21.5194 17.7065 15.6274 18.7719 11.2814 20.5421C9.10522 21.4289 7.31552 22.4877 6.02603 23.7285C4.73653 24.9693 3.9375 26.4439 3.9375 28.0355ZM5.65899 28.0355C5.65899 27.0156 6.1592 25.9957 7.22457 24.9693C8.2867 23.9461 9.89776 22.9685 11.9311 22.1402C15.9944 20.4837 21.7143 19.4313 28.0384 19.4313C34.3624 19.4313 40.0823 20.4837 44.1457 22.1402C46.1757 22.9685 47.79 23.9461 48.8522 24.9693C49.9143 25.9957 50.4145 27.0156 50.4145 28.0355C50.4145 29.0554 49.9143 30.0753 48.8522 31.0984C47.79 32.1216 46.1757 33.1025 44.1424 33.9308C40.0823 35.5873 34.3592 36.6397 28.0384 36.6397C21.7176 36.6397 15.9944 35.5873 11.9278 33.9308C9.89776 33.1025 8.2867 32.1216 7.22457 31.0984C6.1592 30.0753 5.65899 29.0554 5.65899 28.0355Z" fill="white"/>
<path d="M40.6022 49.7749C41.9892 48.9759 42.8434 47.511 43.2397 45.731C43.636 43.9511 43.6165 41.8138 43.2494 39.4167C42.5089 34.616 40.3554 28.7662 36.9579 22.8904C33.5604 17.0146 29.5685 12.2269 25.7779 9.18671C23.8843 7.6666 22.0394 6.58174 20.2984 6.03606C18.5574 5.49038 16.8619 5.49687 15.475 6.2959C14.088 7.09494 13.2338 8.55983 12.8375 10.3365C12.4412 12.1165 12.4607 14.257 12.8278 16.6541C13.5683 21.4548 15.7251 27.3046 19.1193 33.1804C22.5136 39.0562 26.5087 43.8439 30.2993 46.8841C32.1929 48.401 34.0378 49.4891 35.7788 50.0348C37.5198 50.5804 39.2153 50.5739 40.6022 49.7749ZM39.7382 48.2808C38.871 48.7842 37.7342 48.8427 36.2953 48.3912C34.8499 47.9365 33.1576 46.9686 31.3776 45.5394C27.8177 42.6876 23.9168 38.0363 20.6134 32.3196C17.3069 26.5998 15.2249 20.8993 14.533 16.3942C14.1855 14.1401 14.1887 12.1912 14.52 10.7166C14.8481 9.24193 15.4685 8.29023 16.339 7.79003C17.2062 7.28982 18.3398 7.22811 19.7819 7.67959C21.2241 8.13433 22.9196 9.10226 24.6996 10.5282C28.2562 13.3832 32.1572 18.0313 35.4637 23.7544C38.7671 29.4711 40.8491 35.1715 41.5442 39.6766C41.8917 41.9308 41.8852 43.8829 41.5539 45.3543C41.2259 46.8289 40.6087 47.7806 39.7382 48.2808Z" fill="white"/>
<path d="M15.475 49.775C14.088 48.9759 13.2338 47.511 12.8375 45.7311C12.438 43.9544 12.4575 41.8171 12.8278 39.4168C13.5683 34.6193 15.7218 28.763 19.1193 22.8905C22.5136 17.0147 26.5087 12.2237 30.2993 9.18351C32.1929 7.66665 34.0346 6.58179 35.7788 6.03286C37.5198 5.49043 39.2153 5.49693 40.6022 6.29596C41.9892 7.09499 42.8434 8.55988 43.2397 10.3366C43.636 12.1165 43.6165 14.2538 43.2462 16.6541C42.5089 21.4516 40.3554 27.3046 36.9579 33.1772C33.5604 39.0562 29.5652 43.8472 25.7747 46.8842C23.881 48.4043 22.0394 49.4891 20.2984 50.0348C18.5574 50.5805 16.8619 50.574 15.475 49.775ZM16.339 48.2808C17.2062 48.7843 18.3398 48.8428 19.7819 48.3913C21.2241 47.9398 22.9196 46.9686 24.6996 45.5394C28.2562 42.6876 32.1604 38.0363 35.4637 32.3197C38.7703 26.5998 40.8491 20.8994 41.5442 16.3943C41.8917 14.1401 41.8885 12.188 41.5572 10.7134C41.2291 9.24198 40.6087 8.29029 39.7382 7.79008C38.871 7.28663 37.7374 7.22816 36.2952 7.67965C34.8531 8.13113 33.1576 9.10231 31.3776 10.5282C27.8177 13.3833 23.92 18.0313 20.6134 23.7512C17.3069 29.4679 15.2249 35.1715 14.533 39.6766C14.1855 41.9308 14.1887 43.8829 14.52 45.3576C14.8481 46.8289 15.4685 47.7806 16.339 48.2808Z" fill="white"/>
</svg>
