<svg width="56" height="56" viewBox="0 0 56 56" fill="none" xmlns="http://www.w3.org/2000/svg">
<path fill-rule="evenodd" clip-rule="evenodd" d="M28.0002 14.3325C21.8883 14.3325 18.0704 17.369 16.5418 23.4442C18.8335 20.4077 21.5079 19.2688 24.5627 20.0273C26.3066 20.4604 27.5533 21.7186 28.9306 23.1096C31.1787 25.3761 33.7797 28 39.4585 28C45.5704 28 49.3883 24.9636 50.9168 18.8884C48.6252 21.9248 45.9531 23.0638 42.896 22.3052C41.152 21.8721 39.9054 20.614 38.5258 19.2229C36.28 16.9542 33.6812 14.3325 28.0002 14.3325ZM16.5418 28C10.43 28 6.61204 31.0365 5.0835 37.1117C7.37516 34.0729 10.0495 32.9363 13.1043 33.6948C14.8483 34.1279 16.095 35.3861 17.4745 36.7771C19.7204 39.0436 22.3214 41.6675 28.0025 41.6675C34.1143 41.6675 37.9322 38.6311 39.4608 32.5559C37.1691 35.5923 34.4947 36.7313 31.44 35.9727C29.696 35.5396 28.4493 34.2815 27.072 32.8904C24.8216 30.624 22.2206 28 16.5418 28Z" fill="white"/>
</svg>
